<svg xmlns="http://www.w3.org/2000/svg" width="81" height="73" fill="none"><path fill="#81B3D2" d="M32 65.3h17V41.4H32v23.9Zm13.9-2.9H35V44.3h10.8v18.1Z"/><path fill="#81B3D2" d="m77.8 39.4 2.2-2.1-10.5-9.9V.4H54.8v13.2L40.3 0 .6 37.4l2.2 2.1 8.3-7.8v37.8H7v2.9h68v-2.9h-5.5V31.6l8.3 7.8ZM58 3.4h8.4v21.1L58 16.6V3.4Zm8.5 66H14.3V28.7l26-24.5 26 24.5v40.7h.1Z"/><path fill="#81B3D2" d="M32.3 27.2a8 8 0 0 0 8.2 7.8c4.5 0 8.3-3.5 8.3-7.8s-3.8-7.7-8.3-7.7c-4.6 0-8.2 3.4-8.2 7.7Zm8.2-5c2.8 0 5.3 2.2 5.3 5 0 2.7-2.4 5-5.3 5S35 30 35 27.2c0-2.7 2.5-5 5.4-5ZM21.7 41.4h-3.1v3.9h3.1v-3.9ZM28 41.4h-3.2v3.9H28v-3.9ZM21.7 47.4h-3.1v3.9h3.1v-3.9ZM28 47.4h-3.2v3.9H28v-3.9ZM55.7 41.4h-3.2v3.9h3.2v-3.9ZM62 41.4H59v3.9H62v-3.9ZM55.7 47.4h-3.2v3.9h3.2v-3.9ZM62 47.4H59v3.9H62v-3.9Z"/></svg>