<svg xmlns="http://www.w3.org/2000/svg" width="78" height="76" fill="none"><path fill="#81B3D2" d="M74.4 22.1h-30c16.8-6.8 18.1-11 17.5-13.5-1.4-3.9-6.9-6.9-12-5.3-6.8 2.1-8.7 10.3-10.5 16.2-2.3-6-4.5-13.6-9.8-17.5a10.2 10.2 0 0 0-7-2c-5 .4-12 5.3-9 10.8 2.7 5.3 11.7 8.7 17.7 11.4H3.9c-2 0-3.5 1.3-3.5 2.8v11.2C.4 37.8 2 39 4 39h.3v36h70.1V39h.1c2 0 3.5-1.3 3.5-2.8V25c0-1.6-1.6-2.9-3.5-2.9ZM51.8 5.8c2.6-.3 6 1.3 6.4 3.2.5 2.7-4 5.2-6.1 6.3-3.1 1.7-6 2.6-8.9 4 1-3.7 3-12.9 8.6-13.5ZM24 15.6c-2.7-1.5-7.8-4.4-7.7-7.7.1-3.6 7-6.5 10.7-3.8 4.7 3.3 6.9 11 8.6 16.4-4-1.6-7.6-2.8-11.6-4.9ZM31.3 72H7.8V39h23.5v33Zm0-36H4V25.1h27.2v11Zm12.3 36h-8.7V25.1h8.7v47Zm27 0H47.3V39h23.5v33h-.2Zm3.6-36h-27V25.1h27v11Z"/></svg>