<svg xmlns="http://www.w3.org/2000/svg" width="74" height="69" fill="none"><path fill="#81B3D2" d="M69 46H4.4C2 46 0 48 0 50.3v3.5C.1 56.1 2 58 4.3 58h1v1c0 5.5 4.2 9.9 9.4 9.9h44c5.2 0 9.4-4.5 9.4-9.9v-1h1c2.2 0 4-1.9 4-4.3v-3.5c0-2.2-1.7-4.2-4-4.2Zm-3.7 13c0 3.8-3 6.9-6.6 6.9h-44A6.8 6.8 0 0 1 8 59v-1h57.3v1Zm5-5.3c0 .7-.6 1.3-1.2 1.3H4.3c-.7 0-1.3-.6-1.3-1.3v-3.5c0-.6.6-1.2 1.3-1.2h64.9c.6 0 1.2.6 1.2 1.3v3.4h-.1ZM15.7 37.9l5.1 4 5.3-4 5.3 4 5.3-4 5.1 4 5.3-4 5.3 4 5.2-4 5.3 4 6-4.7-1.6-2.4-4.4 3.3-5.3-4-5.2 4-5.3-4-5.3 4-5.1-4-5.3 4-5.3-4-5.3 4-5.1-4-5.3 4L6 34.8l-1.7 2.4 6.1 4.7 5.3-4Zm52.4-6.8v-3C67.4 12.5 53.6 0 36.7 0 19.7 0 5.8 12.5 5 28.1v3h63ZM36.7 3c15.3 0 28 11.2 28.5 25.1H8C8.7 14.2 21.3 3 36.7 3Z"/><path fill="#81B3D2" d="M36.7 17c1 0 1.9-.9 1.9-2a2 2 0 0 0-2-2c-1 0-1.9.9-1.9 2s.9 2 2 2ZM29 12.1c1 0 2-.9 2-2a2 2 0 0 0-2-2c-1 0-2 .9-2 2s1 2 2 2Zm15.3 0c1 0 2-.9 2-2a2 2 0 0 0-2-2c-1 0-1.9.9-1.9 2s.9 2 2 2Z"/></svg>